<svg width="35" height="35" viewBox="0 0 35 35" fill="none" xmlns="http://www.w3.org/2000/svg">
<g opacity="0.2">
<mask id="path-1-inside-1_197_62" fill="white">
<path d="M32.856 3.536C34.808 5.488 34.492 8.97 32.148 11.314L14.2 29.264C14.0085 29.4557 13.7852 29.6126 13.54 29.728C12.788 30.082 12.016 30.512 10.186 31.57C9.282 32.094 8.882 32.324 8.394 32.596C5.048 34.466 3.808 34.956 2.624 33.77C1.44 32.586 1.928 31.346 3.786 28.016C4.062 27.524 4.294 27.12 4.822 26.206C5.882 24.376 6.312 23.606 6.664 22.852C6.778 22.612 6.936 22.386 7.13 22.192L25.08 4.242C27.422 1.9 30.904 1.582 32.858 3.536"/>
</mask>
<path d="M32.856 3.536C34.808 5.488 34.492 8.97 32.148 11.314L14.2 29.264C14.0085 29.4557 13.7852 29.6126 13.54 29.728C12.788 30.082 12.016 30.512 10.186 31.57C9.282 32.094 8.882 32.324 8.394 32.596C5.048 34.466 3.808 34.956 2.624 33.77C1.44 32.586 1.928 31.346 3.786 28.016C4.062 27.524 4.294 27.12 4.822 26.206C5.882 24.376 6.312 23.606 6.664 22.852C6.778 22.612 6.936 22.386 7.13 22.192L25.08 4.242C27.422 1.9 30.904 1.582 32.858 3.536" fill="#9747FF"/>
<path d="M32.148 11.314L31.4409 10.6069L31.4409 10.6069L32.148 11.314ZM14.2 29.264L13.4929 28.5569L13.4927 28.5571L14.2 29.264ZM13.54 29.728L13.1142 28.8232L13.1141 28.8232L13.54 29.728ZM10.186 31.57L9.68548 30.7043L9.68451 30.7048L10.186 31.57ZM8.394 32.596L7.90714 31.7225L7.90614 31.7231L8.394 32.596ZM2.624 33.77L3.3317 33.0635L3.33111 33.0629L2.624 33.77ZM3.786 28.016L2.91385 27.5267L2.91273 27.5288L3.786 28.016ZM4.822 26.206L3.95668 25.7048L3.9561 25.7058L4.822 26.206ZM6.664 22.852L5.7607 22.4229L5.75788 22.429L6.664 22.852ZM7.13 22.192L7.8371 22.8991L7.13 22.192ZM25.08 4.242L24.3729 3.53489L25.08 4.242ZM32.1489 4.24311C33.5951 5.6893 33.5206 8.52718 31.4409 10.6069L32.8551 12.0211C35.4634 9.41282 36.0209 5.28669 33.5631 2.82889L32.1489 4.24311ZM31.4409 10.6069L13.4929 28.5569L14.9071 29.9711L32.8551 12.0211L31.4409 10.6069ZM13.4927 28.5571C13.3828 28.667 13.2548 28.757 13.1142 28.8232L13.9658 30.6328C14.3155 30.4683 14.6341 30.2443 14.9073 29.9709L13.4927 28.5571ZM13.1141 28.8232C12.3175 29.1982 11.509 29.65 9.68548 30.7043L10.6865 32.4357C12.523 31.374 13.2585 30.9658 13.9659 30.6328L13.1141 28.8232ZM9.68451 30.7048C8.78061 31.2288 8.38707 31.455 7.90714 31.7225L8.88086 33.4695C9.37693 33.193 9.78338 32.9592 10.6875 32.4352L9.68451 30.7048ZM7.90614 31.7231C6.20023 32.6765 5.18144 33.1865 4.46729 33.356C4.14007 33.4337 3.94695 33.4205 3.81832 33.3853C3.69316 33.3511 3.53961 33.2717 3.3317 33.0635L1.9163 34.4765C2.30039 34.8613 2.74584 35.1654 3.29073 35.3145C3.83217 35.4625 4.38018 35.4323 4.92921 35.302C5.96755 35.0555 7.24177 34.3855 8.88185 33.4689L7.90614 31.7231ZM3.33111 33.0629C3.12323 32.855 3.04367 32.7011 3.00924 32.5755C2.97389 32.4465 2.9606 32.2534 3.03753 31.9274C3.20546 31.2156 3.71202 30.2009 4.65926 28.5032L2.91273 27.5288C2.00197 29.1611 1.33554 30.4314 1.09097 31.4681C0.961642 32.0163 0.932231 32.5634 1.08032 33.1039C1.22933 33.6479 1.53277 34.093 1.91689 34.4771L3.33111 33.0629ZM4.65814 28.5052C4.93074 28.0193 5.15993 27.6202 5.6879 26.7062L3.9561 25.7058C3.42807 26.6198 3.19325 27.0287 2.91385 27.5267L4.65814 28.5052ZM5.68732 26.7072C6.74302 24.8846 7.19617 24.076 7.57012 23.275L5.75788 22.429C5.42783 23.136 5.02098 23.8674 3.95668 25.7048L5.68732 26.7072ZM7.56728 23.2811C7.63273 23.1433 7.72469 23.0115 7.8371 22.8991L6.42289 21.4849C6.14731 21.7605 5.92327 22.0807 5.76072 22.4229L7.56728 23.2811ZM7.8371 22.8991L25.7871 4.94911L24.3729 3.53489L6.42289 21.4849L7.8371 22.8991ZM25.7871 4.94911C27.8648 2.87139 30.7027 2.79491 32.1509 4.24311L33.5651 2.82889C31.1053 0.369091 26.9792 0.928605 24.3729 3.53489L25.7871 4.94911Z" fill="black" mask="url(#path-1-inside-1_197_62)"/>
</g>
<path d="M3.11862 24.4767L3.11848 24.477C1.85306 26.9332 1.15559 28.3477 0.891842 29.2794C0.763199 29.7339 0.755136 30.0187 0.802069 30.2245C0.847005 30.4214 0.955524 30.604 1.18183 30.8307C1.18185 30.8307 1.18186 30.8308 1.18188 30.8308M3.11862 24.4767L7.764 29.338C2.892 31.848 1.894 32.25 0.827998 31.184L1.18188 30.8308M3.11862 24.4767C4.09634 22.5761 4.51275 21.7304 4.84972 20.8863L5.01753 20.6316L22.9284 2.72067C23.7768 1.90284 24.9122 1.45037 26.0907 1.46061C27.2705 1.47086 28.3992 1.94412 29.2335 2.77846C30.0679 3.6128 30.5411 4.74145 30.5514 5.92134C30.5616 7.09982 30.1091 8.23523 29.2913 9.08361M3.11862 24.4767L29.2913 9.08361M1.18188 30.8308C1.40852 31.0573 1.59095 31.1659 1.78768 31.2108C1.99327 31.2578 2.278 31.2497 2.73245 31.1209C3.66418 30.8569 5.07865 30.159 7.53491 28.8936L1.18188 30.8308ZM29.2913 9.08361L11.3824 26.9945L11.1279 27.1622C10.2818 27.4991 9.43623 27.9135 7.53501 28.8935L29.2913 9.08361ZM28.5876 8.37356L28.5876 8.3735L2.746 28.696L2.28327 28.5066C2.28305 28.5071 2.28282 28.5077 2.2826 28.5082C2.13657 28.8651 2.03105 29.1777 1.96241 29.439L1.74132 30.2805L2.57974 30.0478C2.89424 29.9605 3.20312 29.854 3.50463 29.7291C4.35913 29.3871 5.1819 28.9819 7.07693 28.0045C8.94313 27.0434 9.7884 26.6273 10.6171 26.2889L10.7103 26.2508L10.7816 26.1796L28.5876 8.37356Z" fill="#9747FF" stroke="black"/>
<path d="M29.0764 13.9016L29.0764 13.9016L29.0826 13.9076C29.1304 13.9538 29.1685 14.0089 29.1947 14.0699C29.2209 14.1309 29.2347 14.1965 29.2353 14.2629C29.2358 14.3293 29.2232 14.3952 29.1981 14.4566C29.1729 14.5181 29.1358 14.5739 29.0888 14.6208C29.0419 14.6678 28.9861 14.7049 28.9246 14.7301C28.8632 14.7552 28.7973 14.7678 28.7309 14.7673C28.6646 14.7667 28.5989 14.7529 28.5379 14.7267C28.4769 14.7005 28.4218 14.6624 28.3756 14.6146L28.3757 14.6146L28.3696 14.6084L17.0591 3.29804C16.9696 3.20403 16.9202 3.07884 16.9213 2.94894C16.9224 2.81785 16.975 2.69244 17.0677 2.59974C17.1604 2.50703 17.2858 2.45445 17.4169 2.45331C17.5468 2.45218 17.672 2.50165 17.766 2.59115L29.0764 13.9016Z" fill="#9747FF" stroke="black"/>
</svg>
