<svg width="24" height="24" viewBox="0 0 24 24" fill="none" xmlns="http://www.w3.org/2000/svg">
<path d="M24 8.328C23.9861 8.21776 23.9593 8.10916 23.92 8.004V7.896C23.8559 7.77262 23.7704 7.6592 23.6667 7.56L15.6667 0.36C15.5564 0.266659 15.4304 0.189697 15.2933 0.132C15.2535 0.126912 15.2131 0.126912 15.1733 0.132C15.0379 0.0620895 14.8883 0.017213 14.7333 0H9.33333C8.27247 0 7.25505 0.379285 6.50491 1.05442C5.75476 1.72955 5.33333 2.64522 5.33333 3.6V4.8H4C2.93913 4.8 1.92172 5.17929 1.17157 5.85442C0.421427 6.52955 0 7.44522 0 8.4V20.4C0 21.3548 0.421427 22.2705 1.17157 22.9456C1.92172 23.6207 2.93913 24 4 24H14.6667C15.7275 24 16.7449 23.6207 17.4951 22.9456C18.2452 22.2705 18.6667 21.3548 18.6667 20.4V19.2H20C21.0609 19.2 22.0783 18.8207 22.8284 18.1456C23.5786 17.4705 24 16.5548 24 15.6V8.4V8.328ZM16 4.092L19.4533 7.2H17.3333C16.9797 7.2 16.6406 7.07357 16.3905 6.84853C16.1405 6.62348 16 6.31826 16 6V4.092ZM16 20.4C16 20.7183 15.8595 21.0235 15.6095 21.2485C15.3594 21.4736 15.0203 21.6 14.6667 21.6H4C3.64638 21.6 3.30724 21.4736 3.05719 21.2485C2.80714 21.0235 2.66667 20.7183 2.66667 20.4V8.4C2.66667 8.08174 2.80714 7.77652 3.05719 7.55147C3.30724 7.32643 3.64638 7.2 4 7.2H5.33333V15.6C5.33333 16.5548 5.75476 17.4705 6.50491 18.1456C7.25505 18.8207 8.27247 19.2 9.33333 19.2H16V20.4ZM21.3333 15.6C21.3333 15.9183 21.1929 16.2235 20.9428 16.4485C20.6928 16.6736 20.3536 16.8 20 16.8H9.33333C8.97971 16.8 8.64057 16.6736 8.39052 16.4485C8.14048 16.2235 8 15.9183 8 15.6V3.6C8 3.28174 8.14048 2.97652 8.39052 2.75147C8.64057 2.52643 8.97971 2.4 9.33333 2.4H13.3333V6C13.3333 6.95478 13.7548 7.87045 14.5049 8.54559C15.2551 9.22072 16.2725 9.6 17.3333 9.6H21.3333V15.6Z" fill="black"/>
</svg>
